<svg xmlns="http://www.w3.org/2000/svg" version="1.0" width="1024.000000pt" height="1024.000000pt" viewBox="243 240 540 520" preserveAspectRatio="xMidYMid meet">
<g transform="translate(0.000000,1024.000000) scale(0.100000,-0.100000)" fill="#000000" stroke="none">
<path d="M3180 7930 c-113 -20 -225 -75 -331 -163 -121 -101 -216 -255 -261 -427 l-23 -85 0 -1520 c0 -1708 -6 -1577 75 -1752 66 -142 140 -231 264 -315 151 -104 270 -136 528 -145 l177 -6 3 -427 3 -426 28 -43 c34 -52 92 -81 162 -81 61 0 113 24 181 82 78 66 237 205 359 312 61 54 239 207 397 341 l287 244 993 4 c1105 4 1055 1 1208 73 211 99 368 287 427 509 17 67 18 145 18 1620 0 1741 6 1592 -75 1760 -99 203 -267 352 -478 424 l-77 26 -1910 1 c-1050 1 -1930 -2 -1955 -6z m3832 -370 c157 -48 259 -169 288 -340 8 -46 10 -502 8 -1535 l-3 -1470 -25 -62 c-49 -121 -115 -189 -229 -235 -56 -23 -57 -23 -656 -26 -330 -1 -796 -3 -1035 -5 l-435 -2 -65 -32 c-36 -18 -103 -67 -150 -108 -213 -190 -635 -555 -712 -617 l-38 -30 0 326 c0 337 -3 361 -43 405 -51 55 -81 61 -347 61 -271 0 -346 10 -431 56 -66 37 -124 101 -162 182 l-32 67 0 1536 0 1535 37 75 c56 114 168 208 269 228 24 5 866 9 1870 10 1793 1 1828 1 1891 -19z"/>
<path d="M4875 7131 c-397 -32 -696 -120 -900 -265 -76 -55 -172 -157 -208 -224 -57 -106 -57 -99 -57 -913 0 -715 1 -750 20 -810 48 -155 203 -317 395 -412 124 -61 248 -96 508 -143 118 -22 182 -27 384 -31 554 -12 976 76 1238 257 113 78 206 189 251 300 l24 61 -2 802 -3 802 -35 70 c-43 87 -175 223 -270 278 -174 101 -511 195 -790 221 -108 10 -457 14 -555 7z m533 -376 c242 -27 447 -79 572 -146 295 -157 143 -337 -370 -438 -153 -30 -286 -41 -503 -41 -441 -1 -815 90 -941 230 -63 70 -60 121 10 186 83 78 294 161 474 188 44 6 185 25 225 29 84 10 414 5 533 -8z m-1246 -827 c170 -81 391 -135 652 -159 161 -15 600 -6 741 15 208 31 452 98 566 157 21 10 41 19 44 19 4 0 5 -49 3 -108 -3 -100 -5 -112 -33 -158 -37 -60 -98 -102 -208 -145 -400 -155 -1041 -173 -1462 -42 -204 64 -342 161 -378 267 -17 49 -24 201 -9 194 4 -2 42 -20 84 -40z m-20 -679 c290 -147 715 -216 1158 -189 96 6 186 12 200 14 14 2 50 6 80 10 155 20 410 92 533 152 28 13 52 24 54 24 2 0 3 -47 3 -105 0 -92 -3 -112 -24 -153 -54 -106 -178 -179 -405 -238 -147 -38 -258 -53 -469 -64 -402 -20 -752 31 -987 145 -101 49 -153 95 -190 169 -22 44 -25 63 -25 158 0 59 2 108 5 108 3 0 33 -14 67 -31z"/>
</g>
</svg>
